<svg width="19" height="21" viewBox="0 0 19 21" xmlns="http://www.w3.org/2000/svg">
<path d="M0 18.75C0 19.7852 0.879836 20.625 1.96429 20.625H16.369C17.4535 20.625 18.3333 19.7852 18.3333 18.75V8.125H0V18.75ZM13.0952 11.0938C13.0952 10.8359 13.3162 10.625 13.5863 10.625H15.2232C15.4933 10.625 15.7143 10.8359 15.7143 11.0938V12.6562C15.7143 12.9141 15.4933 13.125 15.2232 13.125H13.5863C13.3162 13.125 13.0952 12.9141 13.0952 12.6562V11.0938ZM13.0952 16.0938C13.0952 15.8359 13.3162 15.625 13.5863 15.625H15.2232C15.4933 15.625 15.7143 15.8359 15.7143 16.0938V17.6562C15.7143 17.9141 15.4933 18.125 15.2232 18.125H13.5863C13.3162 18.125 13.0952 17.9141 13.0952 17.6562V16.0938ZM7.85714 11.0938C7.85714 10.8359 8.07812 10.625 8.34821 10.625H9.98512C10.2552 10.625 10.4762 10.8359 10.4762 11.0938V12.6562C10.4762 12.9141 10.2552 13.125 9.98512 13.125H8.34821C8.07812 13.125 7.85714 12.9141 7.85714 12.6562V11.0938ZM7.85714 16.0938C7.85714 15.8359 8.07812 15.625 8.34821 15.625H9.98512C10.2552 15.625 10.4762 15.8359 10.4762 16.0938V17.6562C10.4762 17.9141 10.2552 18.125 9.98512 18.125H8.34821C8.07812 18.125 7.85714 17.9141 7.85714 17.6562V16.0938ZM2.61905 11.0938C2.61905 10.8359 2.84003 10.625 3.11012 10.625H4.74702C5.01711 10.625 5.2381 10.8359 5.2381 11.0938V12.6562C5.2381 12.9141 5.01711 13.125 4.74702 13.125H3.11012C2.84003 13.125 2.61905 12.9141 2.61905 12.6562V11.0938ZM2.61905 16.0938C2.61905 15.8359 2.84003 15.625 3.11012 15.625H4.74702C5.01711 15.625 5.2381 15.8359 5.2381 16.0938V17.6562C5.2381 17.9141 5.01711 18.125 4.74702 18.125H3.11012C2.84003 18.125 2.61905 17.9141 2.61905 17.6562V16.0938ZM16.369 3.125H14.4048V1.25C14.4048 0.90625 14.1101 0.625 13.75 0.625H12.4405C12.0804 0.625 11.7857 0.90625 11.7857 1.25V3.125H6.54762V1.25C6.54762 0.90625 6.25298 0.625 5.89286 0.625H4.58333C4.22321 0.625 3.92857 0.90625 3.92857 1.25V3.125H1.96429C0.879836 3.125 0 3.96484 0 5V6.875H18.3333V5C18.3333 3.96484 17.4535 3.125 16.369 3.125Z" />
</svg>
